<?xml version="1.0" encoding="UTF-8" standalone="no"?>
<svg
   version="1.1"
   viewBox="0 0 80 60"
   stroke-miterlimit="10"
   id="svg8378"
   inkscape:version="1.2.1 (9c6d41e410, 2022-07-14)"
   sodipodi:docname="friflo-ECS.svg"
   width="80"
   height="60"
   style="fill:none;stroke:none;stroke-linecap:square;stroke-miterlimit:10"
   inkscape:export-filename="friflo-ECS.png"
   inkscape:export-xdpi="96"
   inkscape:export-ydpi="96"
   xmlns:inkscape="http://www.inkscape.org/namespaces/inkscape"
   xmlns:sodipodi="http://sodipodi.sourceforge.net/DTD/sodipodi-0.dtd"
   xmlns:xlink="http://www.w3.org/1999/xlink"
   xmlns="http://www.w3.org/2000/svg"
   xmlns:svg="http://www.w3.org/2000/svg"
   xmlns:rdf="http://www.w3.org/1999/02/22-rdf-syntax-ns#"
   xmlns:cc="http://creativecommons.org/ns#"
   xmlns:dc="http://purl.org/dc/elements/1.1/">
  <metadata
     id="metadata8429">
    <rdf:RDF>
      <cc:Work
         rdf:about="">
        <dc:format>image/svg+xml</dc:format>
        <dc:type
           rdf:resource="http://purl.org/dc/dcmitype/StillImage" />
      </cc:Work>
    </rdf:RDF>
  </metadata>
  <defs
     id="defs8427">
    <linearGradient
       inkscape:collect="always"
       id="linearGradient1012">
      <stop
         style="stop-color:#ff2a2a;stop-opacity:1;"
         offset="0"
         id="stop1008" />
      <stop
         style="stop-color:#ffcc00;stop-opacity:1;"
         offset="0.91610736"
         id="stop1758" />
      <stop
         style="stop-color:#ffffff;stop-opacity:1;"
         offset="1"
         id="stop1010" />
    </linearGradient>
    <defs
       id="defs8399">
      <filter
         filterUnits="userSpaceOnUse"
         id="shadowFilter-p.1">
        <feGaussianBlur
           id="feGaussianBlur8402"
           result="blur"
           stdDeviation="4.5"
           in="SourceAlpha" />
        <feComponentTransfer
           id="feComponentTransfer8404"
           in="blur"
           style="color-interpolation-filters:sRGB">
          <feFuncR
             id="feFuncR8406"
             intercept="0.0"
             slope="0"
             type="linear" />
          <feFuncG
             id="feFuncG8408"
             intercept="0.0"
             slope="0"
             type="linear" />
          <feFuncB
             id="feFuncB8410"
             intercept="0.0"
             slope="0"
             type="linear" />
          <feFuncA
             id="feFuncA8412"
             intercept="0"
             slope="0.24"
             type="linear" />
        </feComponentTransfer>
      </filter>
    </defs>
    <filter
       style="color-interpolation-filters:sRGB"
       inkscape:label="Drop Shadow"
       id="filter12944"
       x="-0.068035709"
       y="-0.068035715"
       width="1.1927678"
       height="1.1927679">
      <feFlood
         flood-opacity="0.498039"
         flood-color="rgb(0,0,0)"
         result="flood"
         id="feFlood12946" />
      <feComposite
         in="flood"
         in2="SourceGraphic"
         operator="in"
         result="composite1"
         id="feComposite12948" />
      <feGaussianBlur
         in="composite1"
         stdDeviation="3"
         result="blur"
         id="feGaussianBlur12950" />
      <feOffset
         dx="6"
         dy="6"
         result="offset"
         id="feOffset12952" />
      <feComposite
         in="SourceGraphic"
         in2="offset"
         operator="over"
         result="composite2"
         id="feComposite12954" />
    </filter>
    <filter
       style="color-interpolation-filters:sRGB"
       inkscape:label="Drop Shadow"
       id="filter12944-4"
       x="-0.068035707"
       y="-0.068035714"
       width="1.1927679"
       height="1.1927679">
      <feFlood
         flood-opacity="0.498039"
         flood-color="rgb(0,0,0)"
         result="flood"
         id="feFlood12946-5" />
      <feComposite
         in="flood"
         in2="SourceGraphic"
         operator="in"
         result="composite1"
         id="feComposite12948-6" />
      <feGaussianBlur
         in="composite1"
         stdDeviation="3"
         result="blur"
         id="feGaussianBlur12950-8" />
      <feOffset
         dx="6"
         dy="6"
         result="offset"
         id="feOffset12952-8" />
      <feComposite
         in="SourceGraphic"
         in2="offset"
         operator="over"
         result="composite2"
         id="feComposite12954-1" />
    </filter>
    <linearGradient
       inkscape:collect="always"
       xlink:href="#linearGradient1012"
       id="linearGradient1014"
       x1="49.542908"
       y1="3.7515862"
       x2="67.250473"
       y2="31.514215"
       gradientUnits="userSpaceOnUse"
       gradientTransform="matrix(1.4064704,0,0,1.4064704,-39.268785,23.132928)" />
  </defs>
  <sodipodi:namedview
     pagecolor="#ffffff"
     bordercolor="#666666"
     borderopacity="1"
     objecttolerance="10"
     gridtolerance="10"
     guidetolerance="10"
     inkscape:pageopacity="0"
     inkscape:pageshadow="2"
     inkscape:window-width="1920"
     inkscape:window-height="1010"
     id="namedview8425"
     showgrid="false"
     inkscape:zoom="7.9903066"
     inkscape:cx="28.033968"
     inkscape:cy="41.863225"
     inkscape:window-x="-7"
     inkscape:window-y="-7"
     inkscape:window-maximized="1"
     inkscape:current-layer="svg8378"
     inkscape:showpageshadow="2"
     inkscape:pagecheckerboard="0"
     inkscape:deskcolor="#d1d1d1" />
  <clipPath
     id="p.0">
    <path
       d="m 0,0 h 960 v 540 h -960 z"
       id="path8381"
       inkscape:connector-curvature="0"
       style="clip-rule:nonzero" />
  </clipPath>
  <path
     style="fill:#000000;fill-opacity:0;fill-rule:evenodd"
     inkscape:connector-curvature="0"
     id="path8385"
     d="m 0,-475 h 960 v 540 h -960 z" />
  <path
     style="fill:#000000;fill-opacity:0;fill-rule:evenodd;stroke-width:6.38588"
     inkscape:connector-curvature="0"
     id="path8389"
     d="m -305.10497,261.71482 h 363.977964 v 260.46992 h -363.977964 z" />
  <rect
     style="fill:#ffffff;fill-opacity:1;fill-rule:nonzero;stroke:#b2b2b2;stroke-width:1.57048;stroke-linecap:square;stroke-miterlimit:4;stroke-dasharray:none;stroke-dashoffset:0;stroke-opacity:1"
     id="rect8095-0"
     width="59.998257"
     height="26.690248"
     x="18.434446"
     y="31.737539"
     rx="2.3847828"
     ry="2.6249368" />
  <path
     style="fill:#000000;fill-opacity:0;fill-rule:evenodd;stroke-width:0.997554"
     inkscape:connector-curvature="0"
     id="path8417"
     d="m 1.956288,1.421308 h 49.112979 v 20.213934 h -49.112979 z" />
  <path
     style="fill:#000000;fill-opacity:0;fill-rule:evenodd;stroke-width:0.997554"
     inkscape:connector-curvature="0"
     id="path8421"
     d="m 5.6127202,11.932055 h 49.1129708 v 20.213934 h -49.1129708 z" />
  <text
     xml:space="preserve"
     style="font-style:normal;font-variant:normal;font-weight:bold;font-stretch:normal;font-size:30.0046px;line-height:125%;font-family:Arial;-inkscape-font-specification:'Arial Bold';letter-spacing:-1.40647px;word-spacing:0px;mix-blend-mode:normal;fill:url(#linearGradient1014);fill-opacity:1;stroke:none;stroke-width:1.40647px;stroke-linecap:butt;stroke-linejoin:miter;stroke-opacity:1"
     x="18.642481"
     y="55.873039"
     id="text933"><tspan
       sodipodi:role="line"
       id="tspan931"
       x="18.642481"
       y="55.873039"
       style="font-style:normal;font-variant:normal;font-weight:bold;font-stretch:normal;font-family:Arial;-inkscape-font-specification:'Arial Bold';fill:url(#linearGradient1014);fill-opacity:1;stroke-width:1.40647px">ECS</tspan></text>
  <g
     id="g2782"
     transform="matrix(0.15621239,0,0,0.15621239,0.05648307,-4.6288167)">
    <path
       style="fill:#ffffff;fill-rule:evenodd;filter:url(#filter12944)"
       inkscape:connector-curvature="0"
       id="path8415"
       d="m 131.82677,121.20998 v 0 c 0,-29.223259 23.69014,-52.91339 52.91339,-52.91339 v 0 c 14.03351,0 27.49223,5.574791 37.41542,15.497978 9.92317,9.92318 15.49797,23.381902 15.49797,37.415412 v 0 c 0,29.22325 -23.69014,52.91338 -52.91339,52.91338 v 0 c -29.22325,0 -52.91339,-23.69013 -52.91339,-52.91338 z"
       transform="matrix(2.098856,0,0,2.1199488,-272.82565,-109.30716)" />
    <path
       style="fill:#ff0000;fill-rule:nonzero;stroke-width:6.38588"
       inkscape:connector-curvature="0"
       id="path8419"
       d="m 75.679111,80.65867 -2.459613,11.891598 h -11.379722 l -9.969566,48.195702 h -16.069367 l 9.969567,-48.195702 h -8.952944 l 2.459608,-11.891598 h 8.952922 l 1.279001,-6.161101 q 1.574142,-7.585432 2.9843,-10.235368 1.902088,-3.643662 5.673481,-5.763611 3.804177,-2.119949 9.90398,-2.119949 7.37878,0 15.577432,2.716185 l -3.148279,11.59347 q -5.771856,-1.954338 -9.346463,-1.954338 -2.75475,0 -4.099336,1.755593 -0.885447,1.126223 -1.836497,5.929221 l -0.918252,4.239898 z m 8.292492,0 h 15.019938 l -2.426802,11.659718 q 8.395431,-13.084048 18.201011,-13.084048 3.47623,0 7.44439,1.755571 l -6.13261,13.31593 q -2.19723,-0.794982 -4.65684,-0.794982 -4.1649,0 -8.46101,3.179924 -4.263301,3.146811 -6.690103,8.446657 -2.393998,5.29987 -4.75521,16.76085 l -3.902567,18.84768 h -16.069369 z m 50.250627,-22.855699 h 16.06936 l -3.0171,14.707145 h -16.10217 z m -4.72243,22.855699 h 16.06937 l -12.42918,60.0873 h -16.06937 z" />
    <path
       style="fill:#ff0000;fill-rule:nonzero;stroke-width:6.38588"
       inkscape:connector-curvature="0"
       id="path8423"
       d="m 100.50183,176.26225 -2.459602,11.8916 h -11.379722 l -9.969566,48.1957 h -16.069367 l 9.969564,-48.1957 h -8.952939 l 2.459606,-11.8916 h 8.95292 l 1.279004,-6.1611 q 1.574139,-7.58543 2.984302,-10.23538 1.902087,-3.64367 5.673475,-5.76361 3.80418,-2.11995 9.903976,-2.11995 7.378779,0 15.577439,2.71618 l -3.14829,11.59349 q -5.771845,-1.95434 -9.346452,-1.95434 -2.754749,0 -4.099336,1.75559 -0.885447,1.12623 -1.836503,5.92923 l -0.918246,4.23989 z m -3.349596,60.0873 17.184386,-82.94302 h 16.00377 l -17.11879,82.94302 z m 34.331276,-24.94251 q 0,-16.69459 9.31368,-26.63185 9.34645,-9.93726 24.49757,-9.93726 13.18344,0 20.56224,7.35357 7.41158,7.32043 7.41158,19.70888 0,14.57465 -9.24808,25.24065 -9.24808,10.63288 -24.75995,10.63288 -8.39542,0 -14.88876,-3.37867 -6.49334,-3.41181 -9.70721,-9.63916 -3.18107,-6.22735 -3.18107,-13.34904 z m 45.81409,-11.59347 q 0,-5.79675 -3.34506,-9.27477 -3.31225,-3.47806 -8.59219,-3.47806 -5.21433,0 -9.24808,3.27931 -4.03373,3.24617 -6.26376,9.44039 -2.23004,6.19423 -2.23004,11.39472 0,6.45923 3.44342,10.2685 3.47624,3.77616 8.75618,3.77616 6.62451,0 11.08458,-5.73048 6.39495,-8.0823 6.39495,-19.67577 z" />
  </g>
</svg>
